<svg xmlns="http://www.w3.org/2000/svg" xmlns:xlink="http://www.w3.org/1999/xlink" width="1080" zoomAndPan="magnify" viewBox="0 0 810 809.999993" height="1080" preserveAspectRatio="xMidYMid meet" version="1.0"><defs><clipPath id="5bc97c49c3"><path d="M 86 81 L 707 81 L 707 708.75 L 86 708.75 Z M 86 81 " clip-rule="nonzero"/></clipPath><clipPath id="42d9a7e80c"><path d="M 98 93.085938 L 707 93.085938 L 707 708.835938 L 98 708.835938 Z M 98 93.085938 " clip-rule="nonzero"/></clipPath></defs><rect x="-81" width="972" fill="#ffffff" y="-80.999999" height="971.999992" fill-opacity="1"/><rect x="-81" width="972" fill="#abc3ce" y="-80.999999" height="971.999992" fill-opacity="1"/><g clip-path="url(#5bc97c49c3)"><path fill="#516689" d="M 224.105469 253.007812 C 224.109375 250.199219 224.179688 247.390625 224.320312 244.582031 C 224.460938 241.777344 224.671875 238.976562 224.949219 236.179688 C 225.226562 233.386719 225.574219 230.597656 225.988281 227.820312 C 226.402344 225.039062 226.882812 222.273438 227.433594 219.519531 C 227.984375 216.765625 228.601562 214.023438 229.285156 211.300781 C 229.972656 208.574219 230.722656 205.867188 231.539062 203.179688 C 232.355469 200.492188 233.238281 197.824219 234.1875 195.179688 C 235.136719 192.535156 236.148438 189.914062 237.222656 187.320312 C 238.300781 184.726562 239.441406 182.160156 240.640625 179.621094 C 241.84375 177.078125 243.109375 174.570312 244.433594 172.09375 C 245.757812 169.617188 247.144531 167.171875 248.589844 164.765625 C 250.035156 162.355469 251.535156 159.980469 253.097656 157.648438 C 254.660156 155.3125 256.277344 153.015625 257.949219 150.757812 C 259.625 148.503906 261.351562 146.289062 263.136719 144.117188 C 264.917969 141.945312 266.753906 139.816406 268.640625 137.738281 C 270.527344 135.65625 272.460938 133.621094 274.449219 131.632812 C 276.433594 129.648438 278.46875 127.710938 280.550781 125.824219 C 282.632812 123.9375 284.757812 122.101562 286.929688 120.316406 C 289.101562 118.535156 291.316406 116.808594 293.570312 115.132812 C 295.828125 113.457031 298.125 111.839844 300.457031 110.277344 C 302.792969 108.71875 305.167969 107.214844 307.574219 105.769531 C 309.984375 104.324219 312.429688 102.9375 314.90625 101.613281 C 317.382812 100.285156 319.890625 99.023438 322.429688 97.820312 C 324.96875 96.617188 327.535156 95.476562 330.128906 94.398438 C 332.726562 93.324219 335.34375 92.3125 337.988281 91.363281 C 340.632812 90.414062 343.300781 89.53125 345.988281 88.714844 C 348.675781 87.894531 351.382812 87.144531 354.105469 86.460938 C 356.832031 85.773438 359.570312 85.15625 362.328125 84.605469 C 365.082031 84.054688 367.847656 83.574219 370.628906 83.160156 C 373.40625 82.742188 376.195312 82.398438 378.988281 82.117188 C 381.785156 81.839844 384.585938 81.628906 387.390625 81.488281 C 390.199219 81.347656 393.003906 81.277344 395.816406 81.273438 C 622.769531 89.300781 623.214844 415.992188 396.394531 424.710938 C 393.582031 424.71875 390.765625 424.65625 387.953125 424.523438 C 385.140625 424.394531 382.335938 424.191406 379.53125 423.921875 C 376.730469 423.652344 373.9375 423.316406 371.148438 422.910156 C 368.363281 422.503906 365.589844 422.027344 362.828125 421.484375 C 360.066406 420.941406 357.316406 420.332031 354.585938 419.652344 C 351.851562 418.972656 349.136719 418.230469 346.441406 417.417969 C 343.746094 416.605469 341.070312 415.730469 338.417969 414.785156 C 335.765625 413.84375 333.136719 412.835938 330.535156 411.761719 C 327.933594 410.691406 325.355469 409.554688 322.808594 408.355469 C 320.261719 407.160156 317.746094 405.898438 315.257812 404.574219 C 312.773438 403.253906 310.320312 401.871094 307.90625 400.429688 C 305.488281 398.984375 303.105469 397.484375 300.761719 395.925781 C 298.417969 394.363281 296.113281 392.75 293.851562 391.074219 C 291.585938 389.402344 289.363281 387.675781 287.183594 385.890625 C 285.003906 384.109375 282.871094 382.277344 280.78125 380.386719 C 278.691406 378.5 276.648438 376.5625 274.65625 374.578125 C 272.660156 372.589844 270.71875 370.554688 268.824219 368.472656 C 266.929688 366.386719 265.085938 364.261719 263.296875 362.085938 C 261.507812 359.914062 259.773438 357.699219 258.09375 355.4375 C 256.410156 353.179688 254.785156 350.882812 253.21875 348.542969 C 251.652344 346.203125 250.140625 343.828125 248.691406 341.414062 C 247.242188 339.003906 245.847656 336.554688 244.519531 334.074219 C 243.1875 331.59375 241.917969 329.082031 240.710938 326.539062 C 239.503906 323.996094 238.359375 321.421875 237.277344 318.824219 C 236.199219 316.222656 235.183594 313.601562 234.230469 310.949219 C 233.277344 308.300781 232.390625 305.628906 231.570312 302.9375 C 230.75 300.242188 229.996094 297.53125 229.308594 294.800781 C 228.621094 292.070312 228 289.324219 227.449219 286.566406 C 226.894531 283.804688 226.410156 281.03125 225.996094 278.246094 C 225.578125 275.460938 225.230469 272.667969 224.953125 269.867188 C 224.671875 267.066406 224.464844 264.261719 224.324219 261.449219 C 224.179688 258.636719 224.109375 255.824219 224.105469 253.007812 Z M 569.609375 424.792969 C 568.472656 424.09375 567.289062 423.484375 566.066406 422.957031 C 564.839844 422.429688 563.582031 421.992188 562.292969 421.644531 C 561.003906 421.296875 559.699219 421.046875 558.375 420.886719 C 557.050781 420.730469 555.71875 420.664062 554.386719 420.699219 C 553.050781 420.730469 551.726562 420.859375 550.414062 421.082031 C 549.097656 421.308594 547.804688 421.625 546.535156 422.035156 C 545.265625 422.441406 544.03125 422.941406 542.832031 423.527344 C 541.636719 424.117188 540.484375 424.785156 539.382812 425.539062 C 536.828125 427.613281 534.226562 429.632812 531.585938 431.597656 C 528.941406 433.5625 526.257812 435.46875 523.53125 437.316406 C 520.808594 439.164062 518.042969 440.953125 515.242188 442.679688 C 512.4375 444.410156 509.601562 446.078125 506.726562 447.683594 C 503.851562 449.292969 500.945312 450.835938 498.003906 452.316406 C 495.066406 453.800781 492.09375 455.21875 489.09375 456.570312 C 486.089844 457.925781 483.0625 459.210938 480.003906 460.433594 C 476.945312 461.660156 473.863281 462.816406 470.757812 463.90625 C 467.652344 464.996094 464.523438 466.019531 461.371094 466.972656 C 458.21875 467.929688 455.050781 468.816406 451.859375 469.636719 C 448.671875 470.457031 445.464844 471.207031 442.246094 471.886719 C 439.023438 472.566406 435.789062 473.179688 432.539062 473.71875 C 429.292969 474.261719 426.035156 474.734375 422.765625 475.136719 C 419.496094 475.535156 416.222656 475.867188 412.941406 476.128906 C 409.65625 476.386719 406.371094 476.578125 403.082031 476.695312 C 399.789062 476.8125 396.5 476.863281 393.207031 476.839844 C 389.914062 476.816406 386.621094 476.722656 383.332031 476.558594 C 380.046875 476.390625 376.761719 476.15625 373.484375 475.851562 C 370.203125 475.542969 366.933594 475.167969 363.671875 474.71875 C 360.410156 474.273438 357.160156 473.753906 353.917969 473.167969 C 350.679688 472.582031 347.453125 471.925781 344.242188 471.199219 C 341.03125 470.472656 337.835938 469.675781 334.65625 468.8125 C 331.480469 467.949219 328.324219 467.019531 325.1875 466.019531 C 322.046875 465.019531 318.933594 463.953125 315.84375 462.816406 C 312.75 461.683594 309.6875 460.484375 306.648438 459.21875 C 303.605469 457.953125 300.597656 456.621094 297.613281 455.226562 C 294.632812 453.832031 291.679688 452.371094 288.761719 450.847656 C 285.839844 449.324219 282.957031 447.742188 280.105469 446.09375 C 277.253906 444.445312 274.4375 442.738281 271.660156 440.972656 C 268.882812 439.203125 266.144531 437.375 263.445312 435.488281 C 260.746094 433.601562 258.089844 431.660156 255.476562 429.660156 C 252.859375 427.660156 250.289062 425.601562 247.761719 423.492188 C 245.855469 422.613281 243.871094 421.980469 241.8125 421.585938 C 239.75 421.191406 237.671875 421.046875 235.574219 421.15625 C 233.480469 421.269531 231.429688 421.625 229.417969 422.234375 C 227.410156 422.84375 225.503906 423.683594 223.699219 424.753906 C 218.421875 428.265625 213.257812 431.933594 208.207031 435.761719 C 203.15625 439.589844 198.230469 443.570312 193.421875 447.703125 C 188.617188 451.835938 183.945312 456.109375 179.402344 460.53125 C 174.859375 464.949219 170.457031 469.507812 166.195312 474.195312 C 161.933594 478.886719 157.820312 483.707031 153.855469 488.652344 C 149.890625 493.59375 146.082031 498.65625 142.429688 503.835938 C 138.777344 509.015625 135.285156 514.300781 131.960938 519.695312 C 128.632812 525.089844 125.472656 530.582031 122.484375 536.171875 C 119.496094 541.761719 116.683594 547.4375 114.042969 553.199219 C 111.40625 558.960938 108.945312 564.796875 106.664062 570.710938 C 104.386719 576.625 102.292969 582.605469 100.378906 588.648438 C 98.46875 594.691406 96.746094 600.785156 95.210938 606.933594 C 93.675781 613.082031 92.332031 619.273438 91.175781 625.503906 C 90.023438 631.738281 89.0625 638 88.292969 644.289062 C 87.523438 650.582031 86.949219 656.890625 86.570312 663.214844 C 86.191406 669.542969 86.007812 675.875 86.019531 682.214844 C 86.019531 683.078125 86.058594 683.9375 86.144531 684.800781 C 86.226562 685.660156 86.355469 686.511719 86.523438 687.359375 C 86.691406 688.207031 86.902344 689.046875 87.152344 689.871094 C 87.402344 690.699219 87.691406 691.511719 88.023438 692.3125 C 88.351562 693.109375 88.722656 693.890625 89.128906 694.652344 C 89.535156 695.414062 89.980469 696.152344 90.460938 696.871094 C 90.941406 697.589844 91.453125 698.285156 92.003906 698.953125 C 92.550781 699.621094 93.128906 700.261719 93.742188 700.871094 C 94.351562 701.480469 94.992188 702.0625 95.660156 702.609375 C 96.328125 703.160156 97.019531 703.671875 97.738281 704.152344 C 98.457031 704.632812 99.199219 705.074219 99.960938 705.484375 C 100.722656 705.890625 101.503906 706.257812 102.300781 706.589844 C 103.101562 706.921875 103.914062 707.210938 104.738281 707.460938 C 105.566406 707.710938 106.402344 707.921875 107.25 708.089844 C 108.097656 708.257812 108.953125 708.382812 109.8125 708.46875 C 110.671875 708.550781 111.535156 708.59375 112.398438 708.59375 L 680.105469 708.59375 C 680.96875 708.59375 681.832031 708.550781 682.691406 708.46875 C 683.550781 708.382812 684.40625 708.257812 685.253906 708.089844 C 686.101562 707.921875 686.9375 707.710938 687.765625 707.460938 C 688.59375 707.210938 689.40625 706.921875 690.203125 706.589844 C 691.003906 706.257812 691.78125 705.890625 692.542969 705.484375 C 693.308594 705.074219 694.046875 704.632812 694.765625 704.152344 C 695.484375 703.671875 696.175781 703.160156 696.847656 702.609375 C 697.515625 702.0625 698.152344 701.484375 698.765625 700.871094 C 699.375 700.261719 699.953125 699.621094 700.503906 698.953125 C 701.050781 698.285156 701.566406 697.589844 702.046875 696.871094 C 702.527344 696.15625 702.96875 695.414062 703.375 694.652344 C 703.785156 693.890625 704.152344 693.109375 704.484375 692.3125 C 704.8125 691.511719 705.105469 690.699219 705.355469 689.871094 C 705.605469 689.046875 705.8125 688.207031 705.980469 687.359375 C 706.152344 686.511719 706.277344 685.660156 706.359375 684.800781 C 706.445312 683.9375 706.488281 683.078125 706.488281 682.214844 C 706.480469 675.890625 706.285156 669.570312 705.894531 663.257812 C 705.503906 656.949219 704.921875 650.652344 704.148438 644.378906 C 703.375 638.101562 702.410156 631.855469 701.253906 625.636719 C 700.097656 619.417969 698.753906 613.242188 697.222656 607.109375 C 695.691406 600.972656 693.972656 594.890625 692.070312 588.859375 C 690.167969 582.828125 688.082031 576.863281 685.8125 570.957031 C 683.546875 565.054688 681.101562 559.226562 678.476562 553.472656 C 675.855469 547.71875 673.058594 542.046875 670.089844 536.464844 C 667.121094 530.882812 663.984375 525.394531 660.679688 520 C 657.378906 514.609375 653.914062 509.324219 650.285156 504.140625 C 646.660156 498.960938 642.878906 493.894531 638.941406 488.945312 C 635.007812 483.996094 630.925781 479.171875 626.695312 474.46875 C 622.464844 469.769531 618.097656 465.199219 613.589844 460.765625 C 609.078125 456.332031 604.441406 452.039062 599.667969 447.886719 C 594.898438 443.738281 590.007812 439.734375 584.992188 435.882812 C 579.976562 432.027344 574.851562 428.332031 569.609375 424.792969 Z M 569.609375 424.792969 " fill-opacity="1" fill-rule="nonzero"/></g><g clip-path="url(#42d9a7e80c)"><path fill="#000000" d="M 233.429688 261.773438 C 233.433594 259.015625 233.503906 256.261719 233.640625 253.511719 C 233.777344 250.757812 233.984375 248.011719 234.253906 245.269531 C 234.527344 242.53125 234.867188 239.796875 235.273438 237.070312 C 235.679688 234.34375 236.152344 231.632812 236.695312 228.929688 C 237.234375 226.226562 237.839844 223.542969 238.511719 220.867188 C 239.179688 218.195312 239.917969 215.542969 240.71875 212.90625 C 241.519531 210.269531 242.386719 207.65625 243.316406 205.0625 C 244.246094 202.46875 245.238281 199.898438 246.292969 197.355469 C 247.347656 194.808594 248.464844 192.289062 249.644531 189.800781 C 250.824219 187.308594 252.0625 184.851562 253.363281 182.421875 C 254.664062 179.992188 256.019531 177.59375 257.4375 175.230469 C 258.855469 172.871094 260.328125 170.542969 261.859375 168.253906 C 263.390625 165.960938 264.980469 163.710938 266.621094 161.496094 C 268.261719 159.285156 269.957031 157.113281 271.703125 154.984375 C 273.453125 152.851562 275.253906 150.769531 277.101562 148.726562 C 278.953125 146.683594 280.851562 144.691406 282.800781 142.742188 C 284.75 140.792969 286.742188 138.894531 288.785156 137.042969 C 290.824219 135.191406 292.910156 133.390625 295.039062 131.644531 C 297.167969 129.894531 299.339844 128.199219 301.554688 126.558594 C 303.765625 124.917969 306.015625 123.328125 308.308594 121.796875 C 310.597656 120.265625 312.925781 118.792969 315.289062 117.375 C 317.648438 115.957031 320.046875 114.597656 322.476562 113.296875 C 324.90625 112 327.363281 110.757812 329.855469 109.578125 C 332.34375 108.398438 334.863281 107.28125 337.40625 106.226562 C 339.953125 105.171875 342.519531 104.175781 345.113281 103.246094 C 347.707031 102.316406 350.324219 101.453125 352.960938 100.648438 C 355.59375 99.847656 358.25 99.109375 360.921875 98.4375 C 363.59375 97.765625 366.28125 97.160156 368.980469 96.621094 C 371.683594 96.082031 374.398438 95.609375 377.121094 95.203125 C 379.847656 94.792969 382.582031 94.453125 385.324219 94.179688 C 388.066406 93.910156 390.8125 93.703125 393.5625 93.566406 C 396.316406 93.425781 399.070312 93.355469 401.824219 93.351562 C 624.398438 101.222656 624.835938 421.613281 402.394531 430.164062 C 399.632812 430.171875 396.875 430.109375 394.117188 429.980469 C 391.359375 429.851562 388.605469 429.652344 385.855469 429.390625 C 383.109375 429.125 380.367188 428.792969 377.636719 428.394531 C 374.902344 427.996094 372.183594 427.53125 369.472656 426.996094 C 366.765625 426.464844 364.070312 425.867188 361.390625 425.199219 C 358.710938 424.535156 356.046875 423.804688 353.402344 423.007812 C 350.761719 422.214844 348.136719 421.355469 345.535156 420.429688 C 342.933594 419.503906 340.355469 418.515625 337.804688 417.464844 C 335.25 416.414062 332.726562 415.300781 330.226562 414.125 C 327.730469 412.949219 325.261719 411.710938 322.824219 410.414062 C 320.386719 409.117188 317.980469 407.761719 315.609375 406.347656 C 313.238281 404.933594 310.90625 403.460938 308.605469 401.929688 C 306.308594 400.402344 304.046875 398.816406 301.828125 397.175781 C 299.605469 395.535156 297.425781 393.839844 295.289062 392.09375 C 293.152344 390.34375 291.058594 388.546875 289.011719 386.695312 C 286.960938 384.84375 284.957031 382.945312 283.003906 380.996094 C 281.046875 379.046875 279.140625 377.050781 277.28125 375.007812 C 275.425781 372.964844 273.617188 370.878906 271.863281 368.746094 C 270.109375 366.613281 268.40625 364.441406 266.757812 362.226562 C 265.109375 360.011719 263.519531 357.757812 261.980469 355.464844 C 260.441406 353.171875 258.960938 350.839844 257.539062 348.476562 C 256.117188 346.109375 254.753906 343.707031 253.449219 341.277344 C 252.140625 338.84375 250.898438 336.378906 249.714844 333.882812 C 248.53125 331.390625 247.40625 328.867188 246.347656 326.320312 C 245.289062 323.769531 244.289062 321.195312 243.355469 318.597656 C 242.421875 316 241.554688 313.378906 240.75 310.738281 C 239.945312 308.097656 239.207031 305.4375 238.53125 302.757812 C 237.855469 300.082031 237.25 297.390625 236.707031 294.683594 C 236.164062 291.976562 235.691406 289.253906 235.28125 286.523438 C 234.875 283.792969 234.53125 281.054688 234.257812 278.308594 C 233.984375 275.558594 233.78125 272.808594 233.640625 270.050781 C 233.503906 267.292969 233.433594 264.535156 233.429688 261.773438 Z M 572.265625 430.242188 C 571.148438 429.558594 569.992188 428.957031 568.789062 428.441406 C 567.585938 427.921875 566.355469 427.496094 565.089844 427.15625 C 563.828125 426.816406 562.546875 426.566406 561.246094 426.414062 C 559.945312 426.257812 558.644531 426.195312 557.335938 426.226562 C 556.027344 426.261719 554.726562 426.386719 553.4375 426.605469 C 552.148438 426.824219 550.878906 427.132812 549.636719 427.535156 C 548.390625 427.9375 547.179688 428.425781 546.003906 429.003906 C 544.828125 429.578125 543.703125 430.234375 542.621094 430.972656 C 540.113281 433.007812 537.566406 434.992188 534.972656 436.917969 C 532.382812 438.84375 529.75 440.710938 527.078125 442.523438 C 524.402344 444.335938 521.695312 446.089844 518.945312 447.785156 C 516.199219 449.480469 513.414062 451.117188 510.59375 452.691406 C 507.777344 454.269531 504.925781 455.785156 502.042969 457.234375 C 499.160156 458.6875 496.246094 460.078125 493.300781 461.40625 C 490.355469 462.734375 487.386719 463.996094 484.386719 465.199219 C 481.390625 466.398438 478.367188 467.53125 475.320312 468.601562 C 472.273438 469.667969 469.203125 470.671875 466.113281 471.609375 C 463.023438 472.546875 459.914062 473.417969 456.789062 474.222656 C 453.660156 475.023438 450.515625 475.757812 447.355469 476.425781 C 444.199219 477.09375 441.027344 477.695312 437.839844 478.226562 C 434.65625 478.757812 431.460938 479.21875 428.253906 479.613281 C 425.050781 480.007812 421.835938 480.332031 418.617188 480.585938 C 415.398438 480.839844 412.175781 481.027344 408.949219 481.144531 C 405.722656 481.261719 402.496094 481.308594 399.265625 481.285156 C 396.035156 481.261719 392.808594 481.167969 389.582031 481.007812 C 386.359375 480.847656 383.136719 480.613281 379.921875 480.316406 C 376.707031 480.015625 373.5 479.644531 370.300781 479.207031 C 367.101562 478.769531 363.914062 478.261719 360.738281 477.683594 C 357.558594 477.109375 354.394531 476.464844 351.246094 475.753906 C 348.097656 475.039062 344.964844 474.261719 341.847656 473.414062 C 338.730469 472.566406 335.636719 471.652344 332.558594 470.671875 C 329.480469 469.691406 326.425781 468.644531 323.394531 467.535156 C 320.363281 466.421875 317.359375 465.246094 314.375 464.003906 C 311.394531 462.761719 308.441406 461.457031 305.519531 460.089844 C 302.59375 458.71875 299.699219 457.289062 296.835938 455.796875 C 293.972656 454.300781 291.144531 452.746094 288.347656 451.132812 C 285.550781 449.515625 282.789062 447.84375 280.066406 446.109375 C 277.34375 444.375 274.65625 442.582031 272.011719 440.734375 C 269.363281 438.882812 266.757812 436.976562 264.191406 435.015625 C 261.628906 433.054688 259.105469 431.035156 256.628906 428.964844 C 254.757812 428.105469 252.8125 427.484375 250.792969 427.097656 C 248.769531 426.710938 246.734375 426.570312 244.675781 426.675781 C 242.621094 426.785156 240.609375 427.136719 238.640625 427.734375 C 236.671875 428.332031 234.800781 429.15625 233.03125 430.207031 C 227.855469 433.648438 222.792969 437.246094 217.839844 441 C 212.886719 444.753906 208.050781 448.660156 203.339844 452.710938 C 198.625 456.761719 194.042969 460.957031 189.585938 465.289062 C 185.132812 469.625 180.816406 474.09375 176.636719 478.695312 C 172.457031 483.292969 168.421875 488.019531 164.535156 492.867188 C 160.644531 497.71875 156.910156 502.679688 153.328125 507.761719 C 149.746094 512.839844 146.324219 518.023438 143.058594 523.316406 C 139.796875 528.605469 136.699219 533.992188 133.769531 539.472656 C 130.839844 544.953125 128.078125 550.519531 125.492188 556.167969 C 122.902344 561.820312 120.492188 567.546875 118.253906 573.34375 C 116.019531 579.144531 113.964844 585.007812 112.089844 590.933594 C 110.21875 596.859375 108.527344 602.839844 107.019531 608.867188 C 105.515625 614.898438 104.195312 620.96875 103.066406 627.082031 C 101.933594 633.195312 100.992188 639.335938 100.238281 645.503906 C 99.484375 651.671875 98.921875 657.859375 98.546875 664.066406 C 98.175781 670.269531 97.996094 676.480469 98.007812 682.695312 C 98.003906 683.542969 98.046875 684.386719 98.128906 685.230469 C 98.210938 686.074219 98.335938 686.910156 98.5 687.742188 C 98.664062 688.574219 98.871094 689.394531 99.117188 690.207031 C 99.363281 691.019531 99.648438 691.816406 99.972656 692.597656 C 100.296875 693.378906 100.65625 694.144531 101.058594 694.894531 C 101.457031 695.640625 101.890625 696.367188 102.363281 697.070312 C 102.832031 697.777344 103.335938 698.457031 103.875 699.113281 C 104.410156 699.765625 104.980469 700.394531 105.578125 700.992188 C 106.179688 701.59375 106.804688 702.160156 107.460938 702.699219 C 108.117188 703.234375 108.796875 703.738281 109.5 704.210938 C 110.207031 704.679688 110.933594 705.117188 111.679688 705.515625 C 112.425781 705.914062 113.191406 706.277344 113.976562 706.601562 C 114.757812 706.925781 115.554688 707.210938 116.367188 707.457031 C 117.175781 707.703125 118 707.90625 118.828125 708.070312 C 119.660156 708.238281 120.5 708.359375 121.339844 708.441406 C 122.183594 708.527344 123.03125 708.566406 123.878906 708.566406 L 680.628906 708.566406 C 681.476562 708.566406 682.320312 708.527344 683.164062 708.445312 C 684.007812 708.359375 684.84375 708.238281 685.675781 708.070312 C 686.507812 707.90625 687.328125 707.703125 688.140625 707.457031 C 688.949219 707.210938 689.75 706.925781 690.53125 706.601562 C 691.3125 706.277344 692.078125 705.914062 692.828125 705.515625 C 693.574219 705.117188 694.300781 704.679688 695.003906 704.210938 C 695.710938 703.738281 696.390625 703.234375 697.046875 702.699219 C 697.699219 702.160156 698.328125 701.59375 698.925781 700.992188 C 699.527344 700.394531 700.09375 699.765625 700.632812 699.113281 C 701.167969 698.457031 701.671875 697.777344 702.144531 697.070312 C 702.617188 696.367188 703.050781 695.640625 703.449219 694.894531 C 703.847656 694.144531 704.210938 693.378906 704.535156 692.597656 C 704.859375 691.816406 705.144531 691.019531 705.390625 690.207031 C 705.636719 689.394531 705.839844 688.574219 706.003906 687.742188 C 706.171875 686.910156 706.292969 686.074219 706.375 685.230469 C 706.460938 684.386719 706.5 683.542969 706.5 682.695312 C 706.496094 676.492188 706.300781 670.296875 705.917969 664.105469 C 705.535156 657.917969 704.964844 651.746094 704.207031 645.589844 C 703.449219 639.433594 702.5 633.308594 701.367188 627.210938 C 700.234375 621.113281 698.917969 615.054688 697.414062 609.039062 C 695.914062 603.023438 694.226562 597.054688 692.359375 591.140625 C 690.496094 585.226562 688.449219 579.375 686.226562 573.585938 C 684.003906 567.796875 681.605469 562.082031 679.03125 556.4375 C 676.460938 550.796875 673.71875 545.234375 670.804688 539.761719 C 667.894531 534.285156 664.820312 528.902344 661.578125 523.613281 C 658.339844 518.324219 654.941406 513.140625 651.382812 508.0625 C 647.828125 502.980469 644.121094 498.011719 640.261719 493.15625 C 636.402344 488.304688 632.398438 483.570312 628.25 478.960938 C 624.101562 474.351562 619.816406 469.871094 615.394531 465.523438 C 610.972656 461.171875 606.421875 456.964844 601.746094 452.890625 C 597.066406 448.820312 592.269531 444.894531 587.351562 441.117188 C 582.433594 437.339844 577.402344 433.714844 572.265625 430.242188 Z M 572.265625 430.242188 " fill-opacity="1" fill-rule="nonzero"/></g></svg>